HIERARCHY
ROOT hip
{
	OFFSET 0.000000 0.000000 0.000000 
	CHANNELS 6 Xposition Yposition Zposition Xrotation Zrotation Yrotation
	JOINT abdomen
	{
		OFFSET 0.000000 3.402643 0.000000 
		CHANNELS 3 Xrotation Zrotation Yrotation
		JOINT chest
		{
			OFFSET 0.000000 8.438565 -0.680529 
			CHANNELS 3 Xrotation Zrotation Yrotation
			JOINT neck
			{
				OFFSET 0.000000 10.207942 -0.272212 
				CHANNELS 3 Xrotation Zrotation Yrotation
				JOINT head
				{
					OFFSET 0.000000 3.130431 0.000000 
					CHANNELS 3 Xrotation Zrotation Yrotation
					End Site
					{
						OFFSET 0.000000 3.130435 0.000000 
					}
				}
			}
			JOINT lCollar
			{
				OFFSET 3.470700 6.669187 -0.816635 
				CHANNELS 3 Yrotation Zrotation Xrotation
				JOINT lShldr
				{
					OFFSET 3.198488 0.000000 0.000000 
					CHANNELS 3 Zrotation Yrotation Xrotation
					JOINT lForeArm
					{
						OFFSET 10.139888 0.000000 0.000000 
						CHANNELS 3 Yrotation Zrotation Xrotation
						JOINT lHand
						{
							OFFSET 8.370511 0.000000 0.000000 
							CHANNELS 3 Zrotation Yrotation Xrotation
							End Site
							{
								OFFSET 4.083176 0.000000 0.000000 
							}
						}
					}
				}
			}
			JOINT rCollar
			{
				OFFSET -3.470700 6.669187 -0.816635 
				CHANNELS 3 Yrotation Zrotation Xrotation
				JOINT rShldr
				{
					OFFSET -3.198488 0.000000 0.000000 
					CHANNELS 3 Zrotation Yrotation Xrotation
					JOINT rForeArm
					{
						OFFSET -10.139888 0.000000 0.000000 
						CHANNELS 3 Yrotation Zrotation Xrotation
						JOINT rHand
						{
							OFFSET -8.370511 0.000000 0.000000 
							CHANNELS 3 Zrotation Yrotation Xrotation
							End Site
							{
								OFFSET -4.083176 0.000000 0.000000 
							}
						}
					}
				}
			}
		}
	}
	JOINT lThigh
	{
		OFFSET 5.308129 -1.633274 1.361059 
		CHANNELS 3 Xrotation Zrotation Yrotation
		JOINT lShin
		{
			OFFSET -2.041588 -20.007561 0.000000 
			CHANNELS 3 Xrotation Zrotation Yrotation
			JOINT lFoot
			{
				OFFSET 0.000000 -19.190928 -1.224953 
				CHANNELS 3 Xrotation Yrotation Zrotation
				End Site
				{
					OFFSET 0.000000 -2.449906 4.627600 
				}
			}
		}
	}
	JOINT rThigh
	{
		OFFSET -5.308129 -1.633274 1.361059 
		CHANNELS 3 Xrotation Zrotation Yrotation
		JOINT rShin
		{
			OFFSET 2.041588 -20.007561 0.000000 
			CHANNELS 3 Xrotation Zrotation Yrotation
			JOINT rFoot
			{
				OFFSET 0.000000 -19.190928 -1.224953 
				CHANNELS 3 Xrotation Yrotation Zrotation
				End Site
				{
					OFFSET 0.000000 -2.449906 4.627600 
				}
			}
		}
	}
}
MOTION
Frames: 19
Frame Time: 0.033333
-0.335045 42.499847 -4.515284 -10.109598 1.182528 -0.523284 0.000000 0.000000 0.000000 11.468299 -1.397327 -2.090248 -21.301119 -2.547250 1.442547 31.447464 -0.764979 0.058513 -3.519355 9.157742 6.311733 -28.728920 -65.389488 -25.567640 -12.976784 -1.583147 49.840313 20.386877 -2.138689 -10.157390 3.090466 -14.082293 8.028685 19.352907 75.310257 -34.518589 8.068011 1.886784 84.876770 -10.343487 -7.323497 -8.935774 -23.083170 26.655636 10.429646 70.497040 -2.139542 -31.529058 -18.741554 -5.641819 25.136776 -25.191160 -28.547728 -11.539723 71.688568 -5.917777 16.698862 -25.660015 4.151549 -15.004367 
-0.324826 42.494362 -4.513675 -10.050957 1.173127 -0.530137 0.000000 0.000000 0.000000 11.409690 -1.397616 -2.039991 -21.202719 -2.511102 1.433638 31.330217 -0.756629 0.073617 -3.519355 9.157742 6.311733 -28.989403 -65.450554 -25.257233 -13.029161 -1.464332 49.708454 20.248213 -2.126416 -10.137082 3.090466 -14.082293 8.028685 19.408779 75.249367 -34.466236 8.010422 1.881916 84.809639 -10.394362 -7.458457 -8.935013 -23.183193 26.639723 10.395813 70.572571 -2.106214 -31.581732 -18.684381 -5.596702 25.049303 -25.280054 -28.588285 -11.555022 71.727402 -5.898125 16.749744 -25.768307 4.150246 -14.995861 
-0.335234 42.500233 -4.492857 -10.031457 1.182814 -0.453312 0.000000 0.000000 0.000000 11.331685 -1.426725 -2.121968 -21.124565 -2.513922 1.420469 31.144417 -0.712553 0.065494 -3.519355 9.157742 6.311733 -29.040895 -65.385048 -25.424479 -12.971103 -1.544061 50.140068 20.408581 -2.155671 -10.165870 3.090466 -14.082293 8.028685 20.054594 75.261932 -33.856152 8.127481 1.834560 84.986282 -10.412030 -7.401703 -8.933289 -23.218542 26.507313 10.259780 70.517380 -2.042150 -31.418159 -18.636820 -5.576292 25.026155 -25.104769 -28.569794 -11.642332 71.579887 -5.897323 16.763351 -25.552811 4.121352 -14.988866 
-0.328185 42.514378 -4.488457 -10.080437 1.221095 -0.461154 0.000000 0.000000 0.000000 11.439484 -1.493188 -2.108906 -21.084116 -2.427515 1.293202 30.939766 -0.794903 0.015106 -3.519355 9.157742 6.311733 -28.835068 -65.492767 -25.906187 -12.768118 -1.568211 50.535046 20.388096 -2.305828 -10.179004 3.090466 -14.082293 8.028685 20.117783 75.274567 -33.836857 8.145827 1.811934 85.153481 -10.352349 -7.403530 -8.936084 -23.081865 26.438852 10.274223 70.412956 -2.059999 -31.280884 -18.786865 -5.628610 25.146906 -25.145048 -28.601004 -11.541913 71.659119 -5.917705 16.699617 -25.775864 4.164411 -15.020653 
-0.325772 42.523178 -4.491200 -10.090429 1.278745 -0.500920 0.000000 0.000000 0.000000 11.539029 -1.808424 -2.048956 -21.145420 -1.941852 1.057396 30.784773 -0.994736 0.082635 -3.519355 9.157742 6.311733 -28.415840 -65.496033 -26.140680 -13.179096 -1.611806 50.771320 20.051735 -2.278831 -10.132395 3.090466 -14.082293 8.028685 20.183199 75.258018 -34.065350 7.870159 1.911110 84.977058 -10.324954 -7.458973 -8.928503 -23.100752 26.447733 10.386783 70.502678 -2.039394 -31.598343 -18.498520 -5.526067 24.894258 -25.172632 -28.656605 -11.545664 71.637917 -5.926763 16.731724 -25.714684 4.141916 -15.034578 
-0.333247 42.538551 -4.482163 -10.100313 1.307549 -0.437913 0.000000 0.000000 0.000000 11.648091 -2.037278 -2.138711 -21.220171 -1.666580 1.024951 30.579477 -0.969013 0.214350 -3.519355 9.157742 6.311733 -28.017958 -65.339943 -26.407639 -13.556130 -1.827120 51.256535 20.138479 -2.110559 -10.124584 3.090466 -14.082293 8.028685 20.718102 75.331886 -33.837746 7.697613 1.843463 84.934418 -10.537151 -7.428378 -8.936969 -23.093016 26.372629 10.302125 70.443405 -2.019719 -31.609459 -18.475925 -5.515045 24.900501 -25.016111 -28.685619 -11.650405 71.550858 -5.917004 16.712250 -25.624331 4.128807 -15.053358 
-0.329227 42.488117 -4.471280 -10.119850 1.307470 -0.496953 0.000000 0.000000 0.000000 11.657516 -1.989385 -2.080368 -21.113680 -1.754548 1.086137 30.237762 -0.989484 0.212936 -3.519355 9.157742 6.311733 -27.758646 -65.416084 -26.766119 -13.379836 -1.863861 51.404140 20.354326 -2.191939 -10.160346 3.090466 -14.082293 8.028685 20.389076 75.458809 -34.202919 7.746779 1.800893 85.053040 -10.774215 -7.578467 -8.946760 -23.013914 26.410051 10.339493 70.499550 -2.099015 -31.379436 -18.881733 -5.684606 25.251316 -25.269684 -28.704556 -11.449476 71.894035 -5.956880 16.637913 -26.073652 4.211274 -15.085494 
-0.346922 42.428265 -4.449043 -10.109816 1.240212 -0.562861 0.000000 0.000000 0.000000 11.559600 -1.961379 -1.963687 -21.064699 -1.741300 1.048608 30.023405 -1.063677 0.197880 -3.519355 9.157742 6.311733 -27.667871 -65.418228 -26.756975 -13.455852 -1.890951 51.250534 20.391733 -2.413625 -10.190246 3.090466 -14.082293 8.028685 20.208344 75.531281 -34.396191 7.850940 1.839453 85.186455 -10.694693 -7.725469 -8.932652 -23.132587 26.588276 10.313366 70.827461 -2.077211 -31.533436 -18.906849 -5.675436 25.168436 -25.418739 -28.542990 -11.272240 72.130745 -6.041658 16.445477 -26.350643 4.256266 -15.070449 
-0.349855 42.424187 -4.443175 -10.041515 1.259707 -0.564785 0.000000 0.000000 0.000000 11.452454 -2.009984 -1.842748 -21.190281 -1.613750 0.993253 30.034231 -1.199963 0.222301 -3.519355 9.157742 6.311733 -27.882666 -65.440735 -26.504623 -13.782076 -2.001497 50.976311 20.206135 -2.495772 -10.174218 3.090466 -14.082293 8.028685 20.400082 75.491219 -34.214142 7.851225 1.838776 85.166939 -10.663795 -7.878997 -8.927322 -23.208366 26.565033 10.292095 70.820702 -2.099776 -31.460039 -18.912571 -5.691870 25.203587 -25.487741 -28.573338 -11.292953 72.132607 -6.032504 16.404554 -26.350149 4.254226 -15.072231 
-0.341150 42.428120 -4.437781 -9.983174 1.327258 -0.585107 0.000000 0.000000 0.000000 11.346163 -2.173515 -1.725139 -21.286201 -1.437964 0.876955 30.132284 -1.244580 0.212104 -3.519355 9.157742 6.311733 -28.187109 -65.527473 -26.154251 -14.041760 -2.060771 50.702221 20.038588 -2.487137 -10.155334 3.090466 -14.082293 8.028685 20.764040 75.417191 -33.931210 7.893896 1.805441 85.001534 -10.586730 -7.573007 -8.936207 -23.217482 26.476200 10.302986 70.801956 -2.090180 -31.414328 -18.913876 -5.691061 25.193703 -25.561716 -28.693457 -11.313924 72.151680 -5.993625 16.498005 -26.249905 4.239688 -15.092104 
-0.337223 42.425232 -4.419849 -10.002831 1.356030 -0.590646 0.000000 0.000000 0.000000 11.297592 -2.212191 -1.691872 -21.197956 -1.400628 0.808755 29.956394 -1.236985 0.180417 -3.519355 9.157742 6.311733 -28.385117 -65.524857 -25.940742 -14.137773 -2.113497 50.719337 19.983158 -2.513738 -10.149812 3.090466 -14.082293 8.028685 20.958906 75.450432 -33.782459 7.932529 1.816848 85.000282 -10.391184 -7.191945 -8.941697 -23.170706 26.450203 10.306427 70.812904 -2.089571 -31.357931 -18.980730 -5.692202 25.206240 -25.535034 -28.756380 -11.320212 72.179268 -6.002388 16.538580 -26.326677 4.252541 -15.107724 
-0.333673 42.430107 -4.408257 -10.071290 1.374974 -0.556614 0.000000 0.000000 0.000000 11.346163 -2.173515 -1.686076 -21.080885 -1.415260 0.780354 29.762077 -1.357021 0.158348 -3.519355 9.157742 6.311733 -28.535204 -65.546364 -25.770327 -14.167907 -2.107190 50.787914 19.750540 -2.532968 -10.125924 3.090466 -14.082293 8.028685 20.934027 75.566437 -33.717220 7.858202 1.786899 84.797829 -10.332371 -7.115046 -8.933983 -23.036066 26.394648 10.309912 70.725998 -2.107956 -31.316668 -19.099546 -5.764788 25.347145 -25.406096 -28.831032 -11.410575 72.157623 -5.986107 16.620222 -26.317785 4.259910 -15.102628 
-0.351984 42.429211 -4.385405 -10.120008 1.345924 -0.523344 0.000000 0.000000 0.000000 11.346235 -2.183089 -1.727059 -21.168447 -1.374711 0.726330 29.830540 -1.365497 0.123898 -3.519355 9.157742 6.311733 -28.492142 -65.418617 -25.742456 -14.293131 -2.171859 50.840954 19.722828 -2.546278 -10.118051 3.090466 -14.082293 8.028685 21.329700 75.666252 -33.361588 7.948258 1.767757 84.699677 -10.193539 -6.899249 -8.939487 -22.978064 26.434757 10.285401 70.734291 -2.060613 -31.351778 -19.063421 -5.737442 25.315756 -25.300909 -28.717520 -11.344520 72.151009 -6.003239 16.500633 -26.376305 4.272044 -15.106961 
-0.353310 42.438145 -4.380578 -10.120008 1.345924 -0.494047 0.000000 0.000000 0.000000 11.404723 -2.163495 -1.793790 -21.335135 -1.438268 0.745591 29.781046 -1.293100 0.104454 -3.519355 9.157742 6.311733 -28.372702 -65.401344 -25.944304 -14.217201 -2.111230 50.854046 19.875887 -2.517295 -10.137247 3.090466 -14.082293 8.028685 21.285999 75.753006 -33.404984 8.009440 1.746344 84.572517 -10.321145 -6.689773 -8.950934 -23.082403 26.429976 10.236554 70.846062 -2.009225 -31.526907 -18.741215 -5.589642 24.955862 -25.242538 -28.708214 -11.397075 72.110687 -6.021855 16.498014 -26.434349 4.290679 -15.118173 
-0.348153 42.451916 -4.384694 -10.119968 1.336311 -0.463035 0.000000 0.000000 0.000000 11.521340 -2.076478 -1.819730 -21.501741 -1.491120 0.771294 29.781124 -1.302206 0.091161 -3.519355 9.157742 6.311733 -28.218721 -65.488213 -26.141514 -14.006157 -2.018856 50.945583 20.015667 -2.460474 -10.146832 3.090466 -14.082293 8.028685 20.781734 75.767921 -33.766136 7.914831 1.811601 84.873779 -10.665982 -6.992372 -8.955687 -23.082401 26.429976 10.236553 70.796455 -2.019461 -31.568123 -18.714800 -5.596527 24.995352 -25.191902 -28.763849 -11.514275 72.054497 -5.983736 16.488514 -26.405287 4.269065 -15.109303 
-0.347915 42.457359 -4.384932 -10.061242 1.307708 -0.446788 0.000000 0.000000 0.000000 11.531042 -2.066838 -1.759539 -21.695650 -1.337432 0.634271 29.948996 -1.491750 0.051821 -3.519355 9.157742 6.311733 -28.081366 -65.539421 -26.225931 -14.027869 -2.007379 51.162575 20.078283 -2.334567 -10.141299 3.090466 -14.082293 8.028685 20.431126 75.653816 -34.061455 7.815357 1.905813 85.447487 -10.739621 -7.396442 -8.947075 -23.071070 26.437284 10.256198 70.683487 -2.061560 -31.443022 -18.910387 -5.693163 25.213881 -25.234062 -28.729801 -11.493834 72.047516 -5.965684 16.434988 -26.349424 4.269255 -15.084714 
-0.340345 42.466824 -4.393304 -10.002634 1.307944 -0.513810 0.000000 0.000000 0.000000 11.521412 -2.086047 -1.665429 -21.802208 -1.236382 0.535367 29.978117 -1.473264 0.028879 -3.519355 9.157742 6.311733 -27.958387 -65.546043 -26.266842 -14.143933 -2.040623 51.152821 20.051697 -2.200106 -10.121590 3.090466 -14.082293 8.028685 20.401367 75.562172 -34.127651 7.760854 1.858585 85.284737 -10.492017 -7.323763 -8.938543 -23.099945 26.446505 10.298519 70.653633 -2.081405 -31.482573 -18.909868 -5.683151 25.208660 -25.341494 -28.720055 -11.464094 72.016357 -5.955082 16.509710 -26.202997 4.224494 -15.067077 
-0.341812 42.461620 -4.387013 -9.992904 1.317601 -0.564109 0.000000 0.000000 0.000000 11.521199 -2.057341 -1.640050 -21.793600 -1.365177 0.637789 29.956547 -1.255176 0.046353 -3.519355 9.157742 6.311733 -27.889900 -65.461082 -26.151443 -14.200518 -2.021601 50.800488 20.032406 -2.202512 -10.122863 3.090466 -14.082293 8.028685 20.392212 75.557281 -34.157383 7.755297 1.821817 85.081154 -10.360291 -7.345467 -8.936090 -23.034950 26.480988 10.365720 70.625580 -2.109988 -31.443216 -19.034260 -5.732009 25.307276 -25.389395 -28.640549 -11.340023 72.033043 -6.021999 16.471432 -26.232094 4.244960 -15.076517 
-0.332680 42.460911 -4.392501 -9.963717 1.346575 -0.578267 0.000000 0.000000 0.000000 11.550515 -2.057126 -1.602039 -21.753906 -1.299140 0.630839 29.859930 -1.374327 0.070832 -3.519355 9.157742 6.311733 -27.650978 -65.599037 -26.423397 -14.023610 -2.032431 50.746429 20.042051 -2.201310 -10.122226 3.090466 -14.082293 8.028685 20.056341 75.476891 -34.533840 7.704118 1.842956 85.188759 -10.418646 -7.353317 -8.933293 -23.064863 26.462355 10.412389 70.636742 -2.128876 -31.390436 -19.009138 -5.718130 25.280624 -25.435274 -28.684383 -11.311769 72.013878 -6.003011 16.494764 -26.298422 4.248819 -15.098154 
